# xmcd
#
# Track frame offsets:
#	150
#	13389
#	28090
#	41687
#	55269
#	69792
#	82169
#	95089
#	107057
#	120004
#	132558
#	146100
#	159991
#	172614
#	186640
#	199924
#	212908
#	226060
#	239837
#	251589
#	265043
#	277272
#	289254
#	300978
#	314763
#
# Disc length: 4370 seconds
#
# Revision: 2
# Processed by: cddbd v1.5.1PL2 Copyright (c) Steve Scherf et al.
# Submitted via: audiograbber 1.83.01
#
DISCID=7b111019
DTITLE=Eddie 'Cleanhead' Vinson - Mr Cleanhead Steps Out
DYEAR=1999
DGENRE=Blues
TTITLE0=When My Baby Left Me
TTITLE1=Mr Cleanhead Steps Out
TTITLE2=It's A Groovy Affair
TTITLE3=I've Been So Good
TTITLE4=Juice Head Baby
TTITLE5=Cherry Red Blues
TTITLE6=Somebody's Gotta Go
TTITLE7=Too Many Women Blues
TTITLE8=Just A Dream
TTITLE9=Cleanhead Blues
TTITLE10=Kidney Stew Blues
TTITLE11=King For A Day
TTITLE12=Old Maid Boogie
TTITLE13=Luxary Tax Blues
TTITLE14=Wrong Girl Blues
TTITLE15=I Took The Front Door In
TTITLE16=Friday Fish Fry
TTITLE17=Shavetail
TTITLE18=Ashes On My Pillow
TTITLE19=I'm Gonna Wind Your Clock
TTITLE20=Somebody's Done Stole My Cherry Red
TTITLE21=Eddie's Bounce
TTITLE22=I'm Weak But I'm Willing
TTITLE23=Featherbed Mama
TTITLE24=No Good Woman Blues
EXTD=
EXTT0=
EXTT1=
EXTT2=
EXTT3=
EXTT4=
EXTT5=
EXTT6=
EXTT7=
EXTT8=
EXTT9=
EXTT10=
EXTT11=
EXTT12=
EXTT13=
EXTT14=
EXTT15=
EXTT16=
EXTT17=
EXTT18=
EXTT19=
EXTT20=
EXTT21=
EXTT22=
EXTT23=
EXTT24=
PLAYORDER=
